<mxfile host="app.diagrams.net" modified="2021-01-18T02:47:32.390Z" agent="5.0 (Macintosh)" etag="Aq0908iDd8Ep2K_8_BZe" version="14.2.4" type="github">
  <diagram id="kgpKYQtTHZ0yAKxKKP6v" name="Page-1">
    <mxGraphModel dx="1426" dy="752" grid="1" gridSize="10" guides="1" tooltips="1" connect="1" arrows="1" fold="1" page="1" pageScale="1" pageWidth="850" pageHeight="1100" math="0" shadow="0">
      <root>
        <mxCell id="0" />
        <mxCell id="1" parent="0" />
        <mxCell id="3nuBFxr9cyL0pnOWT2aG-1" value="合约信息获取" style="shape=umlLifeline;perimeter=lifelinePerimeter;container=1;collapsible=0;recursiveResize=0;rounded=0;shadow=0;strokeWidth=1;fontFamily=Garamond;" parent="1" vertex="1">
          <mxGeometry x="120" y="80" width="100" height="300" as="geometry" />
        </mxCell>
        <mxCell id="3nuBFxr9cyL0pnOWT2aG-2" value="" style="points=[];perimeter=orthogonalPerimeter;rounded=0;shadow=0;strokeWidth=1;" parent="3nuBFxr9cyL0pnOWT2aG-1" vertex="1">
          <mxGeometry x="45" y="70" width="10" height="190" as="geometry" />
        </mxCell>
        <mxCell id="3nuBFxr9cyL0pnOWT2aG-5" value="合约审计引擎" style="shape=umlLifeline;perimeter=lifelinePerimeter;container=1;collapsible=0;recursiveResize=0;rounded=0;shadow=0;strokeWidth=1;" parent="1" vertex="1">
          <mxGeometry x="300" y="80" width="100" height="300" as="geometry" />
        </mxCell>
        <mxCell id="3nuBFxr9cyL0pnOWT2aG-6" value="" style="points=[];perimeter=orthogonalPerimeter;rounded=0;shadow=0;strokeWidth=1;" parent="3nuBFxr9cyL0pnOWT2aG-5" vertex="1">
          <mxGeometry x="45" y="80" width="10" height="180" as="geometry" />
        </mxCell>
        <mxCell id="3nuBFxr9cyL0pnOWT2aG-8" value="2.获取合约代码" style="verticalAlign=bottom;endArrow=block;entryX=0;entryY=0;shadow=0;strokeWidth=1;fontSize=7;" parent="1" edge="1">
          <mxGeometry relative="1" as="geometry">
            <mxPoint x="175" y="197" as="sourcePoint" />
            <mxPoint x="345" y="197.0000000000001" as="targetPoint" />
            <Array as="points">
              <mxPoint x="240" y="197" />
            </Array>
          </mxGeometry>
        </mxCell>
        <mxCell id="oefgWrXp9b9dmfqzYPv9-2" value="审计报告生成" style="shape=umlLifeline;perimeter=lifelinePerimeter;container=1;collapsible=0;recursiveResize=0;rounded=0;shadow=0;strokeWidth=1;" parent="1" vertex="1">
          <mxGeometry x="480" y="80" width="100" height="300" as="geometry" />
        </mxCell>
        <mxCell id="oefgWrXp9b9dmfqzYPv9-3" value="" style="points=[];perimeter=orthogonalPerimeter;rounded=0;shadow=0;strokeWidth=1;" parent="oefgWrXp9b9dmfqzYPv9-2" vertex="1">
          <mxGeometry x="45" y="80" width="10" height="200" as="geometry" />
        </mxCell>
        <mxCell id="oefgWrXp9b9dmfqzYPv9-6" value="1.根据合约地址，初始化爬取任务" style="verticalAlign=bottom;endArrow=block;shadow=0;strokeWidth=1;exitX=1.067;exitY=0.068;exitDx=0;exitDy=0;exitPerimeter=0;fontSize=7;" parent="1" edge="1">
          <mxGeometry x="0.1478" y="-15" relative="1" as="geometry">
            <mxPoint x="175.66999999999996" y="162.91999999999996" as="sourcePoint" />
            <mxPoint x="175" y="180" as="targetPoint" />
            <Array as="points">
              <mxPoint x="225" y="162" />
              <mxPoint x="225" y="180" />
            </Array>
            <mxPoint x="15" y="15" as="offset" />
          </mxGeometry>
        </mxCell>
        <mxCell id="oefgWrXp9b9dmfqzYPv9-7" value="3.合约代码预处理" style="verticalAlign=bottom;endArrow=block;shadow=0;strokeWidth=1;exitX=1.067;exitY=0.068;exitDx=0;exitDy=0;exitPerimeter=0;fontSize=7;" parent="1" edge="1">
          <mxGeometry x="0.1478" y="-15" relative="1" as="geometry">
            <mxPoint x="356.66999999999996" y="210.91999999999996" as="sourcePoint" />
            <mxPoint x="356" y="228.00000000000006" as="targetPoint" />
            <Array as="points">
              <mxPoint x="406" y="210" />
              <mxPoint x="406" y="228" />
            </Array>
            <mxPoint x="15" y="15" as="offset" />
          </mxGeometry>
        </mxCell>
        <mxCell id="oefgWrXp9b9dmfqzYPv9-8" value="4.合约漏洞扫描" style="verticalAlign=bottom;endArrow=block;shadow=0;strokeWidth=1;exitX=1.067;exitY=0.068;exitDx=0;exitDy=0;exitPerimeter=0;fontSize=7;" parent="1" edge="1">
          <mxGeometry x="0.1478" y="-15" relative="1" as="geometry">
            <mxPoint x="355.66999999999996" y="240.91999999999996" as="sourcePoint" />
            <mxPoint x="355" y="258" as="targetPoint" />
            <Array as="points">
              <mxPoint x="405" y="240" />
              <mxPoint x="405" y="258" />
            </Array>
            <mxPoint x="15" y="15" as="offset" />
          </mxGeometry>
        </mxCell>
        <mxCell id="oefgWrXp9b9dmfqzYPv9-10" value="5.传递漏洞扫描结果" style="verticalAlign=bottom;endArrow=block;entryX=0;entryY=0;shadow=0;strokeWidth=1;fontSize=7;" parent="1" edge="1">
          <mxGeometry relative="1" as="geometry">
            <mxPoint x="356" y="279" as="sourcePoint" />
            <mxPoint x="526" y="279.0000000000001" as="targetPoint" />
            <Array as="points">
              <mxPoint x="421" y="279" />
            </Array>
          </mxGeometry>
        </mxCell>
        <mxCell id="oefgWrXp9b9dmfqzYPv9-11" value="7.获取合约基本信息" style="verticalAlign=bottom;endArrow=block;shadow=0;strokeWidth=1;fontSize=7;" parent="1" edge="1">
          <mxGeometry relative="1" as="geometry">
            <mxPoint x="175.25" y="317" as="sourcePoint" />
            <mxPoint x="524.75" y="317" as="targetPoint" />
            <Array as="points">
              <mxPoint x="240.25" y="317" />
            </Array>
          </mxGeometry>
        </mxCell>
        <mxCell id="oefgWrXp9b9dmfqzYPv9-12" value="6.根据扫描结果对合约打分，评级" style="verticalAlign=bottom;endArrow=block;shadow=0;strokeWidth=1;exitX=1.067;exitY=0.068;exitDx=0;exitDy=0;exitPerimeter=0;fontSize=7;" parent="1" edge="1">
          <mxGeometry x="0.1478" y="-15" relative="1" as="geometry">
            <mxPoint x="536.6699999999998" y="288.91999999999996" as="sourcePoint" />
            <mxPoint x="536" y="306" as="targetPoint" />
            <Array as="points">
              <mxPoint x="586" y="288" />
              <mxPoint x="586" y="306" />
            </Array>
            <mxPoint x="15" y="15" as="offset" />
          </mxGeometry>
        </mxCell>
        <mxCell id="oefgWrXp9b9dmfqzYPv9-13" value="8.生成合约审计报告" style="verticalAlign=bottom;endArrow=block;shadow=0;strokeWidth=1;exitX=1.067;exitY=0.068;exitDx=0;exitDy=0;exitPerimeter=0;fontSize=7;" parent="1" edge="1">
          <mxGeometry x="0.1478" y="-15" relative="1" as="geometry">
            <mxPoint x="535.6699999999998" y="330.91999999999996" as="sourcePoint" />
            <mxPoint x="535" y="348" as="targetPoint" />
            <Array as="points">
              <mxPoint x="585" y="330" />
              <mxPoint x="585" y="348" />
            </Array>
            <mxPoint x="15" y="15" as="offset" />
          </mxGeometry>
        </mxCell>
      </root>
    </mxGraphModel>
  </diagram>
</mxfile>
